<svg width="80" height="80" viewBox="0 0 80 80" fill="none" xmlns="http://www.w3.org/2000/svg">
<rect width="80" height="80" rx="18" fill="#FFFEFD"/>
<g clip-path="url(#clip0_3764_11)">
<path d="M40.9998 28.3333C32.8997 28.3333 26.3332 34.8998 26.3332 43C26.3332 45.7848 27.1073 48.386 28.4547 50.6034L37.6859 41.562L44.9683 48.8444L50.8128 43H45.6665V37.6666H60.3332V53H54.9998V48.241L44.9683 58.2725L37.6372 50.9413L27.9989 60.3814C27.9989 60.3814 28.0311 60.3645 26.6665 59C25.3019 57.6354 23.6053 55.353 23.6053 55.353C21.1267 51.8679 19.6665 47.6026 19.6665 43C19.6665 31.2179 29.2178 21.6666 40.9998 21.6666C49.1683 21.6666 56.2646 26.2576 59.849 33H51.7289C49.0516 30.1287 45.2354 28.3333 40.9998 28.3333Z" fill="#FFB74D"/>
</g>
<defs>
<clipPath id="clip0_3764_11">
<rect width="42.6667" height="42.6667" fill="white" transform="translate(18.3333 18.3333)"/>
</clipPath>
</defs>
</svg>
