<svg width="33" height="30" viewBox="0 0 33 30" fill="none" xmlns="http://www.w3.org/2000/svg">
<path d="M29 17.625C29 17.3266 28.8815 17.0405 28.6705 16.8295C28.4595 16.6185 28.1734 16.5 27.875 16.5H23.375C23.0766 16.5 22.7905 16.6185 22.5795 16.8295C22.3685 17.0405 22.25 17.3266 22.25 17.625V27.75H20V3.375C20 2.283 19.997 1.575 19.928 1.056C19.862 0.5685 19.7555 0.4155 19.67 0.33C19.5845 0.2445 19.4315 0.138 18.944 0.0720001C18.4235 0.00300015 17.717 0 16.625 0C15.533 0 14.825 0.00300015 14.306 0.0720001C13.8185 0.138 13.6655 0.2445 13.58 0.33C13.4945 0.4155 13.388 0.5685 13.322 1.056C13.253 1.5765 13.25 2.283 13.25 3.375V27.75H11V10.125C11 9.82663 10.8815 9.54048 10.6705 9.32951C10.4595 9.11853 10.1734 9 9.875 9H5.375C5.07663 9 4.79048 9.11853 4.5795 9.32951C4.36853 9.54048 4.25 9.82663 4.25 10.125V27.75H1.625C1.32663 27.75 1.04048 27.8685 0.829505 28.0795C0.618526 28.2905 0.5 28.5766 0.5 28.875C0.5 29.1734 0.618526 29.4595 0.829505 29.6705C1.04048 29.8815 1.32663 30 1.625 30H31.625C31.9234 30 32.2095 29.8815 32.4205 29.6705C32.6315 29.4595 32.75 29.1734 32.75 28.875C32.75 28.5766 32.6315 28.2905 32.4205 28.0795C32.2095 27.8685 31.9234 27.75 31.625 27.75H29V17.625Z" fill="#FDFCFA"/>
</svg>
