<svg width="24" height="27" viewBox="0 0 24 27" fill="none" xmlns="http://www.w3.org/2000/svg">
<path d="M0 23.5V10C0 9.525 0.1065 9.075 0.3195 8.65C0.5325 8.225 0.826 7.875 1.2 7.6L10.2 0.85C10.725 0.45 11.325 0.25 12 0.25C12.675 0.25 13.275 0.45 13.8 0.85L22.8 7.6C23.175 7.875 23.469 8.225 23.682 8.65C23.895 9.075 24.001 9.525 24 10V23.5C24 24.325 23.706 25.0315 23.118 25.6195C22.53 26.2075 21.824 26.501 21 26.5H16.5C16.075 26.5 15.719 26.356 15.432 26.068C15.145 25.78 15.001 25.424 15 25V17.5C15 17.075 14.856 16.719 14.568 16.432C14.28 16.145 13.924 16.001 13.5 16H10.5C10.075 16 9.719 16.144 9.432 16.432C9.145 16.72 9.001 17.076 9 17.5V25C9 25.425 8.856 25.7815 8.568 26.0695C8.28 26.3575 7.924 26.501 7.5 26.5H3C2.175 26.5 1.469 26.2065 0.882 25.6195C0.295 25.0325 0.001 24.326 0 23.5Z" fill="#FDFCFA"/>
</svg>
