<svg width="30" height="28" viewBox="0 0 30 28" fill="none" xmlns="http://www.w3.org/2000/svg">
<path d="M27 6.5V3.5C27 1.8455 25.6545 0.5 24 0.5H4.5C2.019 0.5 0 2.519 0 5V23C0 26.3015 2.691 27.5 4.5 27.5H27C28.6545 27.5 30 26.1545 30 24.5V9.5C30 7.8455 28.6545 6.5 27 6.5ZM24 20H21V14H24V20ZM4.5 6.5C4.11378 6.48272 3.74911 6.31714 3.48191 6.03773C3.21472 5.75831 3.0656 5.38661 3.0656 5C3.0656 4.61339 3.21472 4.24169 3.48191 3.96227C3.74911 3.68286 4.11378 3.51728 4.5 3.5H24V6.5H4.5Z" fill="#FDFCFA"/>
</svg>
